<svg width="241" height="106" viewBox="0 0 241 106" fill="none" xmlns="http://www.w3.org/2000/svg">
<path fill-rule="evenodd" clip-rule="evenodd" d="M0.400024 4.31422C0.400024 2.10508 2.19089 0.31422 4.40002 0.31422L240.217 0.314209V12.0126H237.293V50.0324H240.217V90.9769H222.67V14.9372H196.348V90.9769H0.400024V4.31422ZM146.63 10.0881C146.63 9.53578 147.078 9.08807 147.63 9.08807H189.499C190.051 9.08807 190.499 9.53578 190.499 10.0881V46.1079C190.499 46.6602 190.051 47.1079 189.499 47.1079H147.63C147.078 47.1079 146.63 46.6602 146.63 46.1079V10.0881ZM100.837 9.08807C100.284 9.08807 99.8365 9.53578 99.8365 10.0881V46.1079C99.8365 46.6602 100.284 47.1079 100.837 47.1079H142.706C143.258 47.1079 143.706 46.6602 143.706 46.1079V10.0881C143.706 9.53578 143.258 9.08807 142.706 9.08807H100.837ZM53.0428 10.0881C53.0428 9.53578 53.4905 9.08807 54.0428 9.08807H95.9119C96.4642 9.08807 96.9119 9.53578 96.9119 10.0881V46.1079C96.9119 46.6602 96.4642 47.1079 95.9119 47.1079H54.0428C53.4905 47.1079 53.0428 46.6602 53.0428 46.1079V10.0881ZM7.24922 9.08807C6.69693 9.08807 6.24922 9.53578 6.24922 10.0881V46.1079C6.24922 46.6602 6.69693 47.1079 7.24922 47.1079H49.1183C49.6706 47.1079 50.1183 46.6602 50.1183 46.1079V10.0881C50.1183 9.53578 49.6706 9.08807 49.1183 9.08807H7.24922Z" fill="#074C9C"/>
<rect x="196.849" y="15.4372" width="25.3214" height="75.0397" stroke="#022C5C"/>
<rect x="197.359" y="50.0325" width="24.2923" height="2.9246" fill="#022C5C"/>
<rect x="208.047" y="50.0325" width="34.0934" height="2.9246" transform="rotate(-90 208.047 50.0325)" fill="#022C5C"/>
<rect x="208.047" y="89.9666" width="37.0031" height="2.9246" transform="rotate(-90 208.047 89.9666)" fill="#022C5C"/>
<circle cx="175.876" cy="90.9767" r="14.623" fill="#074C9C"/>
<circle cx="35.4952" cy="90.9767" r="14.623" fill="#074C9C"/>
<path d="M228.519 13.0125C228.519 12.4602 228.967 12.0125 229.519 12.0125H237.293V50.0324H229.519C228.967 50.0324 228.519 49.5846 228.519 49.0324V13.0125Z" fill="#D8F1F7"/>
<path d="M238.303 70.5046C238.303 73.735 238.303 73.4292 238.303 76.3538C235.073 76.3538 233.916 73.735 233.916 70.5046C233.916 67.2742 235.073 64.6554 238.303 64.6554C238.303 67.58 238.303 67.2742 238.303 70.5046Z" fill="#D8F1F6"/>
</svg>
