<svg width="200" height="200" viewBox="0 0 200 200" fill="none" xmlns="http://www.w3.org/2000/svg">
<circle cx="100" cy="100" r="100" fill="#123A9E"/>
<path fill-rule="evenodd" clip-rule="evenodd" d="M50 55C50 48.3726 55.3726 43 62 43H138C144.627 43 150 48.3726 150 55V146.75C150 151.859 145.859 156 140.75 156C135.641 156 131.5 151.859 131.5 146.75V145.5L115.718 146.33L100 146.75L84.25 146.33L68.5 145.5V146.75C68.5 151.859 64.3586 156 59.25 156C54.1414 156 50 151.859 50 146.75V55ZM141 122.5C141 127.747 136.747 132 131.5 132C126.253 132 122 127.747 122 122.5C122 117.253 126.253 113 131.5 113C136.747 113 141 117.253 141 122.5ZM67.5 132C72.7467 132 77 127.747 77 122.5C77 117.253 72.7467 113 67.5 113C62.2533 113 58 117.253 58 122.5C58 127.747 62.2533 132 67.5 132ZM77 55.35C77 52.9476 78.9476 51 81.35 51H116.65C119.052 51 121 52.9476 121 55.35C121 57.7524 119.052 59.7 116.65 59.7H81.35C78.9476 59.7 77 57.7524 77 55.35ZM141 69H58V96.7784C58 98.3225 59.172 99.6143 60.7087 99.7643L78.5 101.5L99.1985 102L120 101.5L138.284 99.7586C139.824 99.612 141 98.3188 141 96.7721V69Z" fill="white"/>
</svg>
