<svg width="240" height="106" viewBox="0 0 240 106" fill="none" xmlns="http://www.w3.org/2000/svg">
<path fill-rule="evenodd" clip-rule="evenodd" d="M0 4.00001C0 1.79087 1.79086 1.10732e-05 4 1.09704e-05L239.817 0V11.6984H236.893V49.7182H239.817V90.6627H190V91C190 99.0081 183.508 105.5 175.5 105.5C167.492 105.5 161 99.0081 161 91V90.6627H50C50 98.8089 43.3962 105.5 35.25 105.5C27.1038 105.5 20.5 98.8089 20.5 90.6627H0V4.00001ZM196 53C196 52.4477 196.448 52 197 52H207C207.552 52 208 52.4477 208 53V87C208 87.5523 207.552 88 207 88H197C196.448 88 196 87.5523 196 87V53ZM211 52C210.448 52 210 52.4477 210 53V87C210 87.5523 210.448 88 211 88H221C221.552 88 222 87.5523 222 87V53C222 52.4477 221.552 52 221 52H211ZM210 14C210 13.4477 210.448 13 211 13H221C221.552 13 222 13.4477 222 14V48C222 48.5523 221.552 49 221 49H211C210.448 49 210 48.5523 210 48V14ZM197 13C196.448 13 196 13.4477 196 14V48C196 48.5523 196.448 49 197 49H207C207.552 49 208 48.5523 208 48V14C208 13.4477 207.552 13 207 13H197ZM227.119 12.6982C227.119 12.146 227.567 11.6982 228.119 11.6982H235.893V49.7181H228.119C227.567 49.7181 227.119 49.2704 227.119 48.7181V12.6982ZM237.903 76.0397V64.3413C234.673 64.3413 233.516 66.9601 233.516 70.1905C233.516 73.4209 234.673 76.0397 237.903 76.0397ZM146.23 9.77386C146.23 9.22158 146.678 8.77386 147.23 8.77386H189.099C189.651 8.77386 190.099 9.22158 190.099 9.77386V45.7937C190.099 46.346 189.651 46.7937 189.099 46.7937H147.23C146.678 46.7937 146.23 46.346 146.23 45.7937V9.77386ZM100.436 8.77386C99.8842 8.77386 99.4365 9.22158 99.4365 9.77386V45.7937C99.4365 46.346 99.8842 46.7937 100.436 46.7937H142.306C142.858 46.7937 143.306 46.346 143.306 45.7937V9.77386C143.306 9.22158 142.858 8.77386 142.306 8.77386H100.436ZM52.6428 9.77386C52.6428 9.22158 53.0905 8.77386 53.6428 8.77386H95.5118C96.0641 8.77386 96.5119 9.22158 96.5119 9.77386V45.7937C96.5119 46.346 96.0641 46.7937 95.5118 46.7937H53.6428C53.0905 46.7937 52.6428 46.346 52.6428 45.7937V9.77386ZM6.84919 8.77386C6.29691 8.77386 5.84919 9.22158 5.84919 9.77386V45.7937C5.84919 46.346 6.29691 46.7937 6.84919 46.7937H48.7182C49.2705 46.7937 49.7182 46.346 49.7182 45.7937V9.77386C49.7182 9.22158 49.2705 8.77386 48.7182 8.77386H6.84919Z" fill="#074C9C"/>
</svg>
