<svg width="183" height="101" viewBox="0 0 183 101" fill="none" xmlns="http://www.w3.org/2000/svg">
<path d="M101.532 0.90332H4.28918V9.35246H101.532C110.717 9.35246 121.841 13.4968 132.586 19.4154C127.089 20.7996 123.001 25.7719 123.001 31.6934V42.4857C123.001 49.4746 128.686 55.1594 135.675 55.1594H167.581C169.48 55.1594 171.319 54.7356 172.989 53.9484C173.668 55.3087 174.045 56.5099 174.045 57.4942V58.9024C174.045 68.971 165.855 77.1624 155.785 77.1624H4.28918V85.6115H16.5827C16.7883 88.1378 17.6092 90.4881 18.8991 92.5187H4.28918V100.968H166.317V92.5187H141.489C142.779 90.4881 143.599 88.1378 143.806 85.6115H157.868V85.5059C171.623 84.4371 182.494 72.9266 182.494 58.9024V57.4942C182.494 39.4764 131.666 0.90332 101.532 0.90332ZM167.583 46.7103H135.676C133.347 46.7103 131.451 44.8149 131.451 42.4857V31.692C131.451 29.3628 133.347 27.4674 135.676 27.4674H145.519C154.606 33.7902 162.588 40.772 167.787 46.6878C167.717 46.6906 167.65 46.7103 167.583 46.7103ZM31.7897 91.1894C28.4537 91.1894 25.681 88.7785 25.0938 85.6101H38.4828C37.897 88.7785 35.1257 91.1894 31.7897 91.1894ZM53.8786 91.1894C50.5426 91.1894 47.7698 88.7785 47.1826 85.6101H60.5717C59.9859 88.7785 57.2132 91.1894 53.8786 91.1894ZM66.7677 92.5173C68.0562 90.4867 68.8772 88.1364 69.0828 85.6101H91.3068C91.511 88.1364 92.3334 90.4867 93.6233 92.5173H66.7677ZM106.512 91.1894C103.176 91.1894 100.404 88.7785 99.8151 85.6101H113.204C112.618 88.7785 109.847 91.1894 106.512 91.1894ZM128.601 91.1894C125.265 91.1894 122.493 88.7785 121.904 85.6101H135.293C134.707 88.7785 131.934 91.1894 128.601 91.1894Z" fill="#D8F1F6"/>
<path d="M98.0605 51.8756C105.049 51.8756 110.734 46.1907 110.734 39.2019V31.692C110.734 24.7032 105.049 19.0183 98.0605 19.0183H12.7383C5.74943 19.0183 0.0645752 24.7032 0.0645752 31.692V39.2019C0.0645752 46.1907 5.74943 51.8756 12.7383 51.8756H98.0605ZM85.3234 27.4674H98.0605C100.39 27.4674 102.285 29.3629 102.285 31.692V39.2019C102.285 41.531 100.39 43.4265 98.0605 43.4265H85.3234V27.4674ZM59.6239 27.4674H76.8743V43.4265H59.6239V27.4674ZM33.9245 27.4674H51.1748V43.4265H33.9245V27.4674ZM8.51371 39.2019V31.692C8.51371 29.3629 10.4091 27.4674 12.7383 27.4674H25.4753V43.4265H12.7383C10.4091 43.4265 8.51371 41.531 8.51371 39.2019Z" fill="#D8F1F6"/>
</svg>
