<svg width="51" height="51" viewBox="0 0 51 51" fill="none" xmlns="http://www.w3.org/2000/svg">
<g filter="url(#filter0_d)">
<circle cx="25.5" cy="21.5" r="20.5" fill="#D8F1F6" stroke="#074C9C" stroke-width="2"/>
<path d="M23.7986 35C23.7804 35 23.3448 34.9967 23.0947 34.7106C23.0752 34.6729 22.8599 34.249 22.3821 31.8257C22.3186 31.5049 22.2104 31.1652 22.0643 30.8169L21.8498 30.3115L21.3421 30.5176C20.9886 30.6617 20.6726 30.8259 20.4024 31.0062C18.3499 32.3802 17.9003 32.5288 17.8317 32.5446C17.507 32.5425 17.2551 32.3386 17.185 32.2745L14.7649 29.8574C14.7512 29.8431 14.4318 29.53 14.4579 29.1412C14.4699 29.099 14.6191 28.6488 15.9949 26.5963C16.1755 26.3264 16.339 26.0101 16.4816 25.6572L16.1833 24.9356C15.8337 24.7888 15.494 24.6822 15.1738 24.6178C12.7508 24.1391 12.326 23.9244 12.2664 23.8866C12.0427 23.6907 12.0061 23.3414 12.001 23.239L12.0001 19.8188C11.9992 19.7987 11.9956 19.3524 12.2892 19.0963C12.3272 19.0753 12.7505 18.8612 15.1735 18.3822C15.4934 18.3184 15.8331 18.2115 16.183 18.0641L16.688 17.8508L16.4813 17.3425C16.3387 16.9899 16.1752 16.6742 15.9946 16.4037C14.6191 14.3515 14.4699 13.9007 14.4552 13.8315C14.4366 13.5344 14.6562 13.2618 14.7242 13.1848L17.1427 10.7648C17.158 10.751 17.4453 10.4581 17.8113 10.4581C17.9 10.4718 18.3511 10.6198 20.4021 11.9947C20.6717 12.1738 20.9886 12.3386 21.3418 12.4821L21.8495 12.6897L22.064 12.1831C22.2101 11.8345 22.3183 11.4945 22.3818 11.1749C22.8599 8.75006 23.0749 8.3268 23.1124 8.26719C23.3089 8.04313 23.6576 8.00629 23.7606 8.0009C23.7606 8.0009 27.182 8 27.1835 8C27.2359 8 27.6595 8.00809 27.903 8.28936C27.9237 8.3271 28.1379 8.75215 28.6165 11.1734C28.6815 11.4942 28.7876 11.8345 28.935 12.1828L29.1482 12.6894L29.6575 12.4827C30.0097 12.3383 30.326 12.1735 30.595 11.9944C32.6484 10.6195 33.0995 10.4718 33.1696 10.4557C33.4919 10.4578 33.7442 10.6626 33.8161 10.7256L36.2355 13.1432C36.2505 13.1575 36.5704 13.47 36.5422 13.8591C36.5287 13.9004 36.3805 14.3509 35.0067 16.4034C34.8255 16.6724 34.6611 16.9887 34.5173 17.3422L34.3115 17.8496L34.8168 18.0635C35.1637 18.2106 35.504 18.3178 35.8236 18.3816C38.2484 18.8609 38.6726 19.075 38.7325 19.1125C38.9557 19.3096 38.9934 19.6592 38.9994 19.7613L39 23.1818C39 23.201 39.0054 23.6482 38.7097 23.9046C38.6723 23.9241 38.2475 24.1391 35.826 24.6178C35.5058 24.6822 35.1637 24.7885 34.8168 24.9356L34.3127 25.1504L34.5173 25.6572C34.6611 26.0116 34.8255 26.327 35.0067 26.5969C36.3805 28.65 36.5287 29.0996 36.5455 29.1685C36.5641 29.4659 36.3433 29.7391 36.2747 29.8161L33.8583 32.2361C33.8439 32.2499 33.5566 32.5425 33.1909 32.5425C33.1007 32.5291 32.6496 32.3805 30.5962 31.0062C30.3275 30.825 30.0109 30.6611 29.6587 30.5176L29.1494 30.3115L28.9365 30.8169C28.7891 31.1655 28.6827 31.5052 28.618 31.8254C28.1388 34.2484 27.9249 34.6729 27.8877 34.7328C27.6918 34.9566 27.3411 34.9943 27.2395 34.9988L23.7986 35ZM25.4989 16.4235C22.7014 16.4235 20.4228 18.7012 20.4228 21.5004C20.4228 24.2997 22.7014 26.5774 25.4989 26.5774C28.299 26.5774 30.5759 24.2997 30.5759 21.5004C30.5756 18.7012 28.299 16.4235 25.4989 16.4235Z" fill="#074C9C"/>
</g>
<defs>
<filter id="filter0_d" x="0" y="0" width="51" height="51" filterUnits="userSpaceOnUse" color-interpolation-filters="sRGB">
<feFlood flood-opacity="0" result="BackgroundImageFix"/>
<feColorMatrix in="SourceAlpha" type="matrix" values="0 0 0 0 0 0 0 0 0 0 0 0 0 0 0 0 0 0 127 0"/>
<feOffset dy="4"/>
<feGaussianBlur stdDeviation="2"/>
<feColorMatrix type="matrix" values="0 0 0 0 0 0 0 0 0 0 0 0 0 0 0 0 0 0 0.25 0"/>
<feBlend mode="normal" in2="BackgroundImageFix" result="effect1_dropShadow"/>
<feBlend mode="normal" in="SourceGraphic" in2="effect1_dropShadow" result="shape"/>
</filter>
</defs>
</svg>
