<svg width="124" height="125" viewBox="0 0 124 125" fill="none" xmlns="http://www.w3.org/2000/svg">
<path fill-rule="evenodd" clip-rule="evenodd" d="M88.5098 36.3198C75.8901 23.7425 58.8566 16.6325 41.0863 16.4734L41.0771 16.4727L39.356 16.4727C39.047 16.472 38.7387 16.4861 38.4311 16.4953C37.3167 16.5293 36.4307 17.4421 36.43 18.5572L36.43 31.8862C36.43 32.4462 36.6577 32.9836 37.0621 33.3725C37.4659 33.7622 38.0104 33.97 38.5711 33.9495C52.6001 33.4277 66.2133 38.7579 76.1581 48.6687C86.0731 58.6092 91.4104 72.221 90.8956 86.2528C90.8744 86.8128 91.083 87.358 91.4719 87.7611C91.8615 88.1648 92.3982 88.3932 92.9582 88.3932L106.306 88.3932C107.423 88.3932 108.337 87.5058 108.37 86.3893C108.918 67.6778 101.732 49.5646 88.5063 36.3176L88.5098 36.3198ZM69.5587 55.2794C61.9106 47.6554 51.5868 43.3449 40.8155 43.2466L40.8077 43.2473C40.4605 43.2466 40.1119 43.2473 39.764 43.2473C39.3072 43.2473 38.8504 43.2699 38.3936 43.2925C37.2941 43.347 36.4307 44.2542 36.4307 45.3545L36.4307 58.8135C36.4307 59.3877 36.6697 59.9364 37.0911 60.3267C37.5112 60.7171 38.0754 60.9151 38.6482 60.8726C45.5071 60.3635 52.2451 62.8631 57.1122 67.7231C61.9636 72.5929 64.4576 79.3281 63.9435 86.1835C63.9004 86.7556 64.0991 87.3205 64.4887 87.7413C64.8797 88.162 65.4284 88.401 66.0026 88.401L79.4801 88.401C80.581 88.4017 81.4882 87.5383 81.5427 86.4388C82.1162 74.8288 77.7632 63.5137 69.5565 55.2815L69.5587 55.2794ZM50.0687 74.7807C46.007 70.7191 39.4211 70.7191 35.358 74.7807C31.2957 78.843 31.2957 85.429 35.358 89.4914C37.3089 91.4423 39.9549 92.5383 42.7141 92.5383C45.4718 92.5383 48.1178 91.4423 50.0687 89.4914C54.131 85.429 54.131 78.843 50.0687 74.7807Z" fill="#FFF5DB" fill-opacity="0.5"/>
<path fill-rule="evenodd" clip-rule="evenodd" d="M35.9069 74.795C39.9699 70.7334 46.5559 70.7334 50.6175 74.795C54.6799 78.8573 54.6799 85.4433 50.6175 89.5057C48.6666 91.4566 46.0206 92.5526 43.2629 92.5526C40.5038 92.5526 37.8578 91.4566 35.9069 89.5057C31.8446 85.4433 31.8446 78.8573 35.9069 74.795Z" fill="#FFF5DB"/>
</svg>
