<svg width="125" height="125" viewBox="0 0 125 125" fill="none" xmlns="http://www.w3.org/2000/svg">
<path fill-rule="evenodd" clip-rule="evenodd" d="M89.4463 35.665C76.8266 23.0877 59.7931 15.9777 42.0228 15.8186L42.0136 15.8179L40.2925 15.8179C39.9835 15.8172 39.6752 15.8313 39.3676 15.8405C38.2532 15.8745 37.3672 16.7873 37.3665 17.9024L37.3665 31.2314C37.3665 31.7914 37.5942 32.3288 37.9987 32.7178C38.4024 33.1074 38.9469 33.3153 39.5076 33.2947C53.5366 32.7729 67.1499 38.1031 77.0946 48.0139C87.0097 57.9544 92.3469 71.5662 91.8321 85.598C91.8109 86.158 92.0195 86.7032 92.4084 87.1063C92.798 87.51 93.3347 87.7384 93.8948 87.7384L107.242 87.7384C108.359 87.7384 109.274 86.851 109.307 85.7345C109.854 67.023 102.669 48.9098 89.4428 35.6629L89.4463 35.665ZM70.4952 54.6246C62.8471 47.0006 52.5234 42.6901 41.752 42.5918L41.7442 42.5925C41.397 42.5918 41.0484 42.5925 40.7005 42.5925C40.2437 42.5925 39.7869 42.6151 39.3302 42.6378C38.2306 42.6922 37.3672 43.5994 37.3672 44.6997L37.3672 58.1587C37.3672 58.7329 37.6062 59.2816 38.0277 59.672C38.4477 60.0623 39.012 60.2603 39.5847 60.2178C46.4436 59.7087 53.1817 62.2083 58.0487 67.0683C62.9001 71.9381 65.3941 78.6733 64.88 85.5287C64.8369 86.1008 65.0356 86.6658 65.4252 87.0865C65.8163 87.5072 66.365 87.7462 66.9391 87.7462L80.4166 87.7462C81.5176 87.7469 82.4248 86.8835 82.4792 85.784C83.0527 74.174 78.6997 62.8589 70.4931 54.6267L70.4952 54.6246ZM51.0052 74.1259C46.9436 70.0643 40.3576 70.0643 36.2945 74.1259C32.2322 78.1883 32.2322 84.7743 36.2945 88.8366C38.2454 90.7875 40.8915 91.8835 43.6506 91.8835C46.4083 91.8835 49.0543 90.7875 51.0052 88.8366C55.0675 84.7742 55.0675 78.1883 51.0052 74.1259Z" fill="#FFF5DB"/>
</svg>
