<svg width="135" height="135" viewBox="0 0 135 135" fill="none" xmlns="http://www.w3.org/2000/svg">
<path fill-rule="evenodd" clip-rule="evenodd" d="M89.5098 44.3481C76.8901 31.7708 59.8566 24.6608 42.0863 24.5017L42.0771 24.501L40.356 24.501C40.047 24.5003 39.7387 24.5144 39.4311 24.5236C38.3167 24.5576 37.4307 25.4704 37.43 26.5856L37.43 39.9145C37.43 40.4745 37.6577 41.0119 38.0621 41.4009C38.4659 41.7905 39.0104 41.9984 39.5711 41.9779C53.6001 41.456 67.2133 46.7862 77.1581 56.697C87.0731 66.6375 92.4104 80.2493 91.8956 94.2811C91.8744 94.8412 92.083 95.3863 92.4719 95.7894C92.8615 96.1931 93.3982 96.4215 93.9582 96.4215L107.306 96.4215C108.423 96.4215 109.337 95.5341 109.37 94.4176C109.918 75.7061 102.732 57.5929 89.5063 44.346L89.5098 44.3481ZM70.5587 63.3077C62.9106 55.6837 52.5868 51.3732 41.8155 51.2749L41.8077 51.2756C41.4605 51.2749 41.1119 51.2756 40.764 51.2756C40.3072 51.2756 39.8504 51.2982 39.3936 51.3209C38.2941 51.3753 37.4307 52.2825 37.4307 53.3828L37.4307 66.8419C37.4307 67.416 37.6697 67.9647 38.0911 68.3551C38.5112 68.7454 39.0754 68.9434 39.6482 68.9009C46.5071 68.3918 53.2451 70.8915 58.1122 75.7514C62.9636 80.6212 65.4576 87.3564 64.9435 94.2118C64.9004 94.7839 65.0991 95.3489 65.4887 95.7696C65.8797 96.1903 66.4284 96.4293 67.0026 96.4293L80.4801 96.4293C81.581 96.43 82.4882 95.5666 82.5427 94.4671C83.1162 82.8571 78.7632 71.542 70.5565 63.3099L70.5587 63.3077ZM51.0687 82.809C47.007 78.7474 40.4211 78.7474 36.358 82.809C32.2957 86.8714 32.2957 93.4574 36.358 97.5197C38.3089 99.4706 40.9549 100.567 43.7141 100.567C46.4718 100.567 49.1178 99.4706 51.0687 97.5197C55.131 93.4573 55.131 86.8714 51.0687 82.809Z" fill="#F2ECE0" fill-opacity="0.5"/>
<path fill-rule="evenodd" clip-rule="evenodd" d="M135 67.5C135 104.779 104.779 135 67.5 135C30.2208 135 0 104.779 0 67.5C0 30.2208 30.2208 0 67.5 0C104.779 0 135 30.2208 135 67.5ZM125 67.5C125 99.2564 99.2564 125 67.5 125C53.2945 125 40.2921 119.849 30.259 111.312L111.312 30.259C119.849 40.2921 125 53.2945 125 67.5ZM104.198 23.2314C94.2405 14.968 81.4504 10 67.5 10C35.7436 10 10 35.7436 10 67.5C10 81.4504 14.968 94.2405 23.2314 104.198L104.198 23.2314Z" fill="#FFF5DB"/>
</svg>
