<svg width="125" height="125" viewBox="0 0 125 125" fill="none" xmlns="http://www.w3.org/2000/svg">
<path fill-rule="evenodd" clip-rule="evenodd" d="M89.5782 35.3481C76.9584 22.7708 59.925 15.6608 42.1547 15.5017L42.1455 15.501L40.4244 15.501C40.1154 15.5003 39.8071 15.5144 39.4995 15.5236C38.3851 15.5576 37.4991 16.4704 37.4984 17.5856L37.4984 30.9145C37.4984 31.4745 37.726 32.0119 38.1305 32.4009C38.5343 32.7905 39.0787 32.9984 39.6395 32.9779C53.6685 32.456 67.2817 37.7862 77.2264 47.697C87.1415 57.6375 92.4787 71.2493 91.964 85.2811C91.9427 85.8412 92.1513 86.3863 92.5403 86.7894C92.9299 87.1931 93.4666 87.4215 94.0266 87.4215L107.374 87.4215C108.491 87.4215 109.405 86.5341 109.439 85.4176C109.986 66.7061 102.8 48.5929 89.5746 35.346L89.5782 35.3481ZM70.627 54.3077C62.9789 46.6837 52.6552 42.3732 41.8838 42.2749L41.8761 42.2756C41.5289 42.2749 41.1803 42.2756 40.8324 42.2756C40.3756 42.2756 39.9188 42.2982 39.462 42.3209C38.3624 42.3753 37.4991 43.2825 37.4991 44.3828L37.4991 57.8419C37.4991 58.416 37.7381 58.9647 38.1595 59.3551C38.5795 59.7454 39.1438 59.9434 39.7165 59.9009C46.5755 59.3918 53.3135 61.8915 58.1805 66.7514C63.032 71.6212 65.5259 78.3564 65.0119 85.2118C64.9687 85.7839 65.1674 86.3489 65.5571 86.7696C65.9481 87.1903 66.4968 87.4293 67.071 87.4293L80.5484 87.4293C81.6494 87.43 82.5566 86.5666 82.6111 85.4671C83.1845 73.8571 78.8316 62.542 70.6249 54.3099L70.627 54.3077ZM51.137 73.809C47.0754 69.7474 40.4894 69.7474 36.4264 73.809C32.3641 77.8714 32.364 84.4574 36.4264 88.5197C38.3773 90.4706 41.0233 91.5666 43.7824 91.5666C46.5401 91.5666 49.1861 90.4706 51.137 88.5197C55.1994 84.4573 55.1994 77.8714 51.137 73.809Z" fill="#FFF5DB" fill-opacity="0.5"/>
<path fill-rule="evenodd" clip-rule="evenodd" d="M41.784 42.448C52.5553 42.5463 62.8791 46.8568 70.5271 54.4808L70.525 54.4829C78.7317 62.7151 83.0846 74.0302 82.5112 85.6402C82.4567 86.7397 81.5495 87.6031 80.4486 87.6024L66.9711 87.6024C66.3969 87.6024 65.8482 87.3634 65.4572 86.9427C65.0676 86.5219 64.8689 85.957 64.912 85.3849C65.4261 78.5295 62.9321 71.7943 58.0806 66.9245C53.2136 62.0645 46.4756 59.5649 39.6167 60.074C39.0439 60.1165 38.4797 59.9185 38.0596 59.5281C37.6382 59.1378 37.3992 58.5891 37.3992 58.0149L37.3992 44.5559C37.3992 43.4556 38.2626 42.5484 39.3621 42.4939C39.8189 42.4713 40.2757 42.4487 40.7325 42.4487L41.0808 42.4485H41.0815C41.3133 42.4484 41.545 42.4482 41.7762 42.4487L41.784 42.448ZM36.3265 73.9821C40.3895 69.9205 46.9755 69.9205 51.0372 73.9821C55.0995 78.0444 55.0995 84.6304 51.0372 88.6928C49.0862 90.6437 46.4403 91.7397 43.6825 91.7397C40.9234 91.7397 38.2774 90.6437 36.3265 88.6928C32.2642 84.6304 32.2642 78.0444 36.3265 73.9821Z" fill="#FFF5DB"/>
</svg>
