<svg width="213" height="126" viewBox="0 0 213 126" fill="none" xmlns="http://www.w3.org/2000/svg">
<path d="M0 46C0 34.9543 8.95431 26 20 26H25V0.5L50.5 26H193C204.046 26 213 34.9543 213 46V106C213 117.046 204.046 126 193 126H20C8.9543 126 0 117.046 0 106V46Z" fill="#123A9E"/>
<path d="M33.4373 69L30.1373 48.75H32.4873L34.6623 63.3L37.3873 48.825H39.3873L42.1373 63.375L44.2623 48.75H46.5623L43.3123 69H41.2623L38.4373 54L35.5873 69H33.4373ZM51.2596 69.2C50.6929 69.2 50.1929 69.0417 49.7596 68.725C49.3262 68.3917 48.9846 67.975 48.7346 67.475C48.4846 66.9583 48.3596 66.4167 48.3596 65.85C48.3596 64.95 48.5096 64.1917 48.8096 63.575C49.1096 62.9583 49.5179 62.4417 50.0346 62.025C50.5679 61.5917 51.1762 61.2167 51.8596 60.9C52.5596 60.5833 53.2929 60.275 54.0596 59.975V58.95C54.0596 58.3667 54.0262 57.8833 53.9596 57.5C53.8929 57.1167 53.7512 56.8333 53.5346 56.65C53.3346 56.45 53.0262 56.35 52.6096 56.35C52.2429 56.35 51.9429 56.4333 51.7096 56.6C51.4929 56.7667 51.3346 57.0083 51.2346 57.325C51.1346 57.625 51.0846 57.9833 51.0846 58.4V59.125L48.4346 59.025C48.4679 57.425 48.8346 56.25 49.5346 55.5C50.2346 54.7333 51.3179 54.35 52.7846 54.35C54.2179 54.35 55.2346 54.7417 55.8346 55.525C56.4346 56.3083 56.7346 57.4417 56.7346 58.925V65.525C56.7346 65.975 56.7429 66.4083 56.7596 66.825C56.7929 67.2417 56.8262 67.6333 56.8596 68C56.9096 68.35 56.9512 68.6833 56.9846 69H54.5346C54.4846 68.7333 54.4179 68.4 54.3346 68C54.2679 67.5833 54.2179 67.2083 54.1846 66.875C54.0179 67.4417 53.6929 67.975 53.2096 68.475C52.7429 68.9583 52.0929 69.2 51.2596 69.2ZM52.3096 66.9C52.5762 66.9 52.8262 66.825 53.0596 66.675C53.2929 66.525 53.5012 66.3583 53.6846 66.175C53.8679 65.975 53.9929 65.8167 54.0596 65.7V61.6C53.6429 61.8333 53.2512 62.0667 52.8846 62.3C52.5179 62.5333 52.1929 62.7833 51.9096 63.05C51.6429 63.3 51.4262 63.5917 51.2596 63.925C51.1096 64.2417 51.0346 64.6083 51.0346 65.025C51.0346 65.6083 51.1429 66.0667 51.3596 66.4C51.5762 66.7333 51.8929 66.9 52.3096 66.9ZM62.9041 69.2C61.7208 69.2 60.7708 68.8333 60.0541 68.1C59.3374 67.35 58.9291 66.3667 58.8291 65.15L61.0541 64.475C61.1874 65.3917 61.4124 66.0833 61.7291 66.55C62.0458 67 62.5124 67.225 63.1291 67.225C63.6124 67.225 63.9791 67.0917 64.2291 66.825C64.4791 66.5417 64.6041 66.1667 64.6041 65.7C64.6041 65.2833 64.5124 64.9083 64.3291 64.575C64.1458 64.2417 63.8458 63.9 63.4291 63.55L60.9541 61.425C60.4541 60.9917 60.0291 60.5083 59.6791 59.975C59.3458 59.4417 59.1791 58.75 59.1791 57.9C59.1791 57.1333 59.3291 56.4917 59.6291 55.975C59.9458 55.4417 60.3791 55.0417 60.9291 54.775C61.4958 54.4917 62.1541 54.35 62.9041 54.35C64.0541 54.35 64.9291 54.725 65.5291 55.475C66.1458 56.2083 66.4958 57.1 66.5791 58.15L64.7791 58.825C64.7124 58.325 64.6124 57.8917 64.4791 57.525C64.3458 57.1417 64.1624 56.85 63.9291 56.65C63.6958 56.4333 63.3874 56.325 63.0041 56.325C62.5708 56.325 62.2208 56.475 61.9541 56.775C61.7041 57.0583 61.5791 57.4 61.5791 57.8C61.5791 58.05 61.6291 58.3 61.7291 58.55C61.8458 58.7833 62.0374 59.0167 62.3041 59.25L64.8541 61.6C65.2041 61.9167 65.5291 62.2583 65.8291 62.625C66.1458 62.9917 66.4041 63.4083 66.6041 63.875C66.8041 64.3417 66.9041 64.8833 66.9041 65.5C66.9041 66.3167 66.7374 67 66.4041 67.55C66.0708 68.1 65.6041 68.5167 65.0041 68.8C64.4041 69.0667 63.7041 69.2 62.9041 69.2ZM69.2297 69V48.75H71.9047V56.05C72.388 55.5833 72.9297 55.1833 73.5297 54.85C74.1297 54.5167 74.7964 54.35 75.5297 54.35C76.0964 54.35 76.5297 54.5 76.8297 54.8C77.1464 55.1 77.363 55.475 77.4797 55.925C77.613 56.375 77.6797 56.8333 77.6797 57.3V69H75.0047V58.075C75.0047 57.5583 74.9297 57.1583 74.7797 56.875C74.6297 56.5917 74.3214 56.45 73.8547 56.45C73.538 56.45 73.2047 56.5417 72.8547 56.725C72.5214 56.9083 72.2047 57.1333 71.9047 57.4V69H69.2297ZM80.7125 69V54.55H83.3875V69H80.7125ZM80.7125 52.4V49.6H83.3875V52.4H80.7125ZM86.5004 69V54.55H89.1754V55.975C89.6587 55.525 90.1921 55.1417 90.7754 54.825C91.3587 54.5083 92.0004 54.35 92.7004 54.35C93.2837 54.35 93.7254 54.5 94.0254 54.8C94.3421 55.1 94.5587 55.475 94.6754 55.925C94.8087 56.375 94.8754 56.8333 94.8754 57.3V69H92.2004V58.075C92.2004 57.5583 92.1254 57.1583 91.9754 56.875C91.8254 56.5917 91.5171 56.45 91.0504 56.45C90.7504 56.45 90.4337 56.5417 90.1004 56.725C89.7837 56.8917 89.4754 57.1 89.1754 57.35V69H86.5004ZM101.487 73.475C100.62 73.475 99.8367 73.3833 99.1367 73.2C98.4367 73.0167 97.8867 72.725 97.4867 72.325C97.0867 71.925 96.8867 71.4 96.8867 70.75C96.8867 70.2833 96.9867 69.875 97.1867 69.525C97.3867 69.175 97.6451 68.875 97.9617 68.625C98.2784 68.3583 98.6117 68.1417 98.9617 67.975C98.4951 67.8417 98.1451 67.6333 97.9117 67.35C97.6784 67.05 97.5617 66.7417 97.5617 66.425C97.5617 65.8917 97.7034 65.4333 97.9867 65.05C98.2701 64.6667 98.6617 64.25 99.1617 63.8C98.6117 63.3833 98.1951 62.85 97.9117 62.2C97.6284 61.55 97.4867 60.65 97.4867 59.5C97.4867 58.3667 97.6367 57.425 97.9367 56.675C98.2534 55.9083 98.7117 55.3333 99.3117 54.95C99.9284 54.55 100.678 54.35 101.562 54.35C102.345 54.35 102.97 54.4833 103.437 54.75C103.92 55.0167 104.287 55.4167 104.537 55.95C104.62 55.8167 104.845 55.5917 105.212 55.275C105.578 54.9417 106.003 54.6667 106.487 54.45L106.887 54.275L107.562 56C107.345 56.0333 107.053 56.1167 106.687 56.25C106.337 56.3667 106.003 56.4917 105.687 56.625C105.387 56.7417 105.195 56.8417 105.112 56.925C105.228 57.2083 105.328 57.6167 105.412 58.15C105.512 58.6833 105.562 59.1583 105.562 59.575C105.562 60.5583 105.437 61.425 105.187 62.175C104.937 62.925 104.52 63.5167 103.937 63.95C103.37 64.3667 102.578 64.575 101.562 64.575C101.345 64.575 101.112 64.5583 100.862 64.525C100.612 64.4917 100.387 64.45 100.187 64.4C100.087 64.55 99.9784 64.725 99.8617 64.925C99.7617 65.125 99.7117 65.3167 99.7117 65.5C99.7117 65.6833 99.8034 65.8333 99.9867 65.95C100.187 66.05 100.495 66.1167 100.912 66.15L103.162 66.35C104.295 66.45 105.137 66.7917 105.687 67.375C106.237 67.9583 106.512 68.7917 106.512 69.875C106.512 70.6583 106.328 71.3167 105.962 71.85C105.595 72.4 105.037 72.8083 104.287 73.075C103.553 73.3417 102.62 73.475 101.487 73.475ZM101.687 71.375C102.637 71.375 103.337 71.2583 103.787 71.025C104.237 70.8083 104.462 70.45 104.462 69.95C104.462 69.65 104.403 69.4 104.287 69.2C104.187 69 103.995 68.8417 103.712 68.725C103.428 68.6083 103.02 68.525 102.487 68.475L100.212 68.275C100.028 68.4583 99.8534 68.6417 99.6867 68.825C99.5201 69.0083 99.3867 69.2 99.2867 69.4C99.1867 69.6167 99.1367 69.8417 99.1367 70.075C99.1367 70.5083 99.3201 70.8333 99.6867 71.05C100.053 71.2667 100.72 71.375 101.687 71.375ZM101.562 62.7C101.945 62.7 102.245 62.6333 102.462 62.5C102.695 62.35 102.87 62.1417 102.987 61.875C103.103 61.5917 103.178 61.25 103.212 60.85C103.262 60.45 103.287 60 103.287 59.5C103.287 59 103.262 58.55 103.212 58.15C103.178 57.7333 103.103 57.3833 102.987 57.1C102.887 56.8 102.72 56.575 102.487 56.425C102.27 56.275 101.97 56.2 101.587 56.2C101.22 56.2 100.912 56.275 100.662 56.425C100.428 56.575 100.253 56.7917 100.137 57.075C100.02 57.3417 99.9367 57.6833 99.8867 58.1C99.8367 58.5 99.8117 58.9667 99.8117 59.5C99.8117 59.95 99.8284 60.375 99.8617 60.775C99.9117 61.1583 99.9951 61.4917 100.112 61.775C100.245 62.0583 100.428 62.2833 100.662 62.45C100.895 62.6167 101.195 62.7 101.562 62.7ZM112.701 69.2C111.951 69.2 111.343 69.0583 110.876 68.775C110.426 68.4917 110.093 68.0917 109.876 67.575C109.676 67.0583 109.576 66.45 109.576 65.75V56.325H108.051V54.55H109.576V50.325H112.251V54.55H114.576V56.325H112.251V65.575C112.251 66.1417 112.343 66.55 112.526 66.8C112.709 67.0333 113.059 67.15 113.576 67.15C113.709 67.15 113.859 67.1417 114.026 67.125C114.209 67.1083 114.384 67.0917 114.551 67.075V69.05C114.218 69.1 113.909 69.1333 113.626 69.15C113.343 69.1833 113.034 69.2 112.701 69.2ZM120.766 69.2C119.7 69.2 118.858 68.9833 118.241 68.55C117.625 68.1167 117.183 67.5 116.916 66.7C116.666 65.9 116.541 64.9583 116.541 63.875V59.675C116.541 58.5917 116.666 57.65 116.916 56.85C117.183 56.05 117.625 55.4333 118.241 55C118.858 54.5667 119.7 54.35 120.766 54.35C121.833 54.35 122.666 54.5667 123.266 55C123.883 55.4333 124.316 56.05 124.566 56.85C124.833 57.65 124.966 58.5917 124.966 59.675V63.875C124.966 64.9583 124.833 65.9 124.566 66.7C124.316 67.5 123.883 68.1167 123.266 68.55C122.666 68.9833 121.833 69.2 120.766 69.2ZM120.766 67.225C121.283 67.225 121.641 67.075 121.841 66.775C122.058 66.475 122.183 66.0833 122.216 65.6C122.266 65.1 122.291 64.5833 122.291 64.05V59.525C122.291 58.975 122.266 58.4583 122.216 57.975C122.183 57.4917 122.058 57.1 121.841 56.8C121.641 56.4833 121.283 56.325 120.766 56.325C120.25 56.325 119.883 56.4833 119.666 56.8C119.45 57.1 119.316 57.4917 119.266 57.975C119.233 58.4583 119.216 58.975 119.216 59.525V64.05C119.216 64.5833 119.233 65.1 119.266 65.6C119.316 66.0833 119.45 66.475 119.666 66.775C119.883 67.075 120.25 67.225 120.766 67.225ZM127.662 69V54.55H130.337V55.975C130.82 55.525 131.353 55.1417 131.937 54.825C132.52 54.5083 133.162 54.35 133.862 54.35C134.445 54.35 134.887 54.5 135.187 54.8C135.503 55.1 135.72 55.475 135.837 55.925C135.97 56.375 136.037 56.8333 136.037 57.3V69H133.362V58.075C133.362 57.5583 133.287 57.1583 133.137 56.875C132.987 56.5917 132.678 56.45 132.212 56.45C131.912 56.45 131.595 56.5417 131.262 56.725C130.945 56.8917 130.637 57.1 130.337 57.35V69H127.662ZM145.086 69V48.75H149.736C150.652 48.75 151.444 48.85 152.111 49.05C152.794 49.25 153.361 49.5583 153.811 49.975C154.261 50.3917 154.594 50.925 154.811 51.575C155.027 52.2083 155.136 52.9583 155.136 53.825C155.136 54.6583 155.027 55.3833 154.811 56C154.611 56.6 154.294 57.075 153.861 57.425C153.444 57.775 152.902 58 152.236 58.1C153.052 58.2833 153.711 58.6 154.211 59.05C154.711 59.4833 155.077 60.05 155.311 60.75C155.561 61.4333 155.686 62.2583 155.686 63.225C155.686 64.0917 155.586 64.8833 155.386 65.6C155.186 66.3167 154.869 66.925 154.436 67.425C154.019 67.925 153.477 68.3167 152.811 68.6C152.161 68.8667 151.386 69 150.486 69H145.086ZM147.911 66.975H149.811C151.077 66.975 151.919 66.6833 152.336 66.1C152.769 65.5 152.986 64.5417 152.986 63.225C152.986 62.375 152.869 61.6667 152.636 61.1C152.419 60.5167 152.061 60.0833 151.561 59.8C151.077 59.5 150.419 59.35 149.586 59.35H147.911V66.975ZM147.911 57.2H149.586C150.386 57.2 151.011 57.0917 151.461 56.875C151.911 56.6417 152.227 56.275 152.411 55.775C152.594 55.275 152.686 54.625 152.686 53.825C152.686 52.8917 152.544 52.2167 152.261 51.8C151.977 51.3833 151.536 51.125 150.936 51.025C150.336 50.9083 149.552 50.85 148.586 50.85H147.911V57.2ZM158.471 69V48.75H161.146V69H158.471ZM166.059 69L163.209 54.55H165.909L167.684 66.175L169.484 54.55H172.084L169.334 69H166.059ZM177.403 69.2C176.186 69.2 175.278 68.7583 174.678 67.875C174.078 66.975 173.778 65.4583 173.778 63.325V60.525C173.778 59.425 173.87 58.4083 174.053 57.475C174.236 56.525 174.578 55.7667 175.078 55.2C175.595 54.6333 176.345 54.35 177.328 54.35C177.811 54.35 178.253 54.4583 178.653 54.675C179.053 54.8917 179.411 55.1583 179.728 55.475V48.75H182.403V69H179.728V68.075C179.411 68.4083 179.061 68.6833 178.678 68.9C178.311 69.1 177.886 69.2 177.403 69.2ZM178.078 67.1C178.328 67.1 178.595 67.0583 178.878 66.975C179.161 66.875 179.445 66.7333 179.728 66.55V57.075C179.495 56.9083 179.236 56.7667 178.953 56.65C178.67 56.5167 178.361 56.45 178.028 56.45C177.411 56.45 176.995 56.75 176.778 57.35C176.561 57.9333 176.453 58.6417 176.453 59.475V63.55C176.453 64.2167 176.486 64.825 176.553 65.375C176.636 65.9083 176.795 66.3333 177.028 66.65C177.261 66.95 177.611 67.1 178.078 67.1ZM53.179 106.2C52.6123 106.2 52.1123 106.042 51.679 105.725C51.2457 105.392 50.904 104.975 50.654 104.475C50.404 103.958 50.279 103.417 50.279 102.85C50.279 101.95 50.429 101.192 50.729 100.575C51.029 99.9583 51.4373 99.4417 51.954 99.025C52.4873 98.5917 53.0957 98.2167 53.779 97.9C54.479 97.5833 55.2123 97.275 55.979 96.975V95.95C55.979 95.3667 55.9457 94.8833 55.879 94.5C55.8123 94.1167 55.6707 93.8333 55.454 93.65C55.254 93.45 54.9457 93.35 54.529 93.35C54.1623 93.35 53.8623 93.4333 53.629 93.6C53.4123 93.7667 53.254 94.0083 53.154 94.325C53.054 94.625 53.004 94.9833 53.004 95.4V96.125L50.354 96.025C50.3873 94.425 50.754 93.25 51.454 92.5C52.154 91.7333 53.2373 91.35 54.704 91.35C56.1373 91.35 57.154 91.7417 57.754 92.525C58.354 93.3083 58.654 94.4417 58.654 95.925V102.525C58.654 102.975 58.6623 103.408 58.679 103.825C58.7123 104.242 58.7457 104.633 58.779 105C58.829 105.35 58.8707 105.683 58.904 106H56.454C56.404 105.733 56.3373 105.4 56.254 105C56.1873 104.583 56.1373 104.208 56.104 103.875C55.9373 104.442 55.6123 104.975 55.129 105.475C54.6623 105.958 54.0123 106.2 53.179 106.2ZM54.229 103.9C54.4957 103.9 54.7457 103.825 54.979 103.675C55.2123 103.525 55.4207 103.358 55.604 103.175C55.7873 102.975 55.9123 102.817 55.979 102.7V98.6C55.5623 98.8333 55.1707 99.0667 54.804 99.3C54.4373 99.5333 54.1123 99.7833 53.829 100.05C53.5623 100.3 53.3457 100.592 53.179 100.925C53.029 101.242 52.954 101.608 52.954 102.025C52.954 102.608 53.0623 103.067 53.279 103.4C53.4957 103.733 53.8123 103.9 54.229 103.9ZM61.4735 106V91.55H64.1485V92.975C64.6319 92.525 65.1652 92.1417 65.7485 91.825C66.3319 91.5083 66.9735 91.35 67.6735 91.35C68.2569 91.35 68.6985 91.5 68.9985 91.8C69.3152 92.1 69.5319 92.475 69.6485 92.925C69.7819 93.375 69.8485 93.8333 69.8485 94.3V106H67.1735V95.075C67.1735 94.5583 67.0985 94.1583 66.9485 93.875C66.7985 93.5917 66.4902 93.45 66.0235 93.45C65.7235 93.45 65.4069 93.5417 65.0735 93.725C64.7569 93.8917 64.4485 94.1 64.1485 94.35V106H61.4735ZM76.0599 106.2C74.8432 106.2 73.9349 105.758 73.3349 104.875C72.7349 103.975 72.4349 102.458 72.4349 100.325V97.525C72.4349 96.425 72.5265 95.4083 72.7099 94.475C72.8932 93.525 73.2349 92.7667 73.7349 92.2C74.2515 91.6333 75.0015 91.35 75.9849 91.35C76.4682 91.35 76.9099 91.4583 77.3099 91.675C77.7099 91.8917 78.0682 92.1583 78.3849 92.475V85.75H81.0599V106H78.3849V105.075C78.0682 105.408 77.7182 105.683 77.3349 105.9C76.9682 106.1 76.5432 106.2 76.0599 106.2ZM76.7349 104.1C76.9849 104.1 77.2515 104.058 77.5349 103.975C77.8182 103.875 78.1015 103.733 78.3849 103.55V94.075C78.1515 93.9083 77.8932 93.7667 77.6099 93.65C77.3265 93.5167 77.0182 93.45 76.6849 93.45C76.0682 93.45 75.6515 93.75 75.4349 94.35C75.2182 94.9333 75.1099 95.6417 75.1099 96.475V100.55C75.1099 101.217 75.1432 101.825 75.2099 102.375C75.2932 102.908 75.4515 103.333 75.6849 103.65C75.9182 103.95 76.2682 104.1 76.7349 104.1ZM94.9823 106.225C93.8157 106.225 92.8407 105.975 92.0573 105.475C91.2907 104.975 90.7073 104.283 90.3073 103.4C89.9073 102.517 89.674 101.492 89.6073 100.325L92.1073 99.65C92.1573 100.367 92.2657 101.058 92.4323 101.725C92.6157 102.392 92.9073 102.942 93.3073 103.375C93.7073 103.792 94.2657 104 94.9823 104C95.7157 104 96.2657 103.8 96.6323 103.4C97.0157 102.983 97.2073 102.392 97.2073 101.625C97.2073 100.708 96.999 99.975 96.5823 99.425C96.1657 98.8583 95.6407 98.2917 95.0073 97.725L91.6073 94.725C90.9407 94.1417 90.449 93.5083 90.1323 92.825C89.8157 92.125 89.6573 91.2667 89.6573 90.25C89.6573 88.7667 90.0823 87.6167 90.9323 86.8C91.7823 85.9833 92.9407 85.575 94.4073 85.575C95.2073 85.575 95.9073 85.6833 96.5073 85.9C97.124 86.1 97.6323 86.4167 98.0323 86.85C98.449 87.2833 98.774 87.8333 99.0073 88.5C99.2573 89.15 99.424 89.9167 99.5073 90.8L97.1073 91.45C97.0573 90.7833 96.9573 90.175 96.8073 89.625C96.6573 89.0583 96.3907 88.6083 96.0073 88.275C95.6407 87.925 95.1073 87.75 94.4073 87.75C93.7073 87.75 93.1573 87.9417 92.7573 88.325C92.374 88.6917 92.1823 89.2417 92.1823 89.975C92.1823 90.5917 92.2823 91.1 92.4823 91.5C92.699 91.9 93.0407 92.3083 93.5073 92.725L96.9323 95.725C97.699 96.3917 98.374 97.1917 98.9573 98.125C99.5407 99.0417 99.8323 100.133 99.8323 101.4C99.8323 102.4 99.624 103.267 99.2073 104C98.7907 104.717 98.2157 105.267 97.4823 105.65C96.7657 106.033 95.9323 106.225 94.9823 106.225ZM105.899 106.2C105.149 106.2 104.54 106.058 104.074 105.775C103.624 105.492 103.29 105.092 103.074 104.575C102.874 104.058 102.774 103.45 102.774 102.75V93.325H101.249V91.55H102.774V87.325H105.449V91.55H107.774V93.325H105.449V102.575C105.449 103.142 105.54 103.55 105.724 103.8C105.907 104.033 106.257 104.15 106.774 104.15C106.907 104.15 107.057 104.142 107.224 104.125C107.407 104.108 107.582 104.092 107.749 104.075V106.05C107.415 106.1 107.107 106.133 106.824 106.15C106.54 106.183 106.232 106.2 105.899 106.2ZM112.589 106.2C112.022 106.2 111.522 106.042 111.089 105.725C110.656 105.392 110.314 104.975 110.064 104.475C109.814 103.958 109.689 103.417 109.689 102.85C109.689 101.95 109.839 101.192 110.139 100.575C110.439 99.9583 110.847 99.4417 111.364 99.025C111.897 98.5917 112.506 98.2167 113.189 97.9C113.889 97.5833 114.622 97.275 115.389 96.975V95.95C115.389 95.3667 115.356 94.8833 115.289 94.5C115.222 94.1167 115.081 93.8333 114.864 93.65C114.664 93.45 114.356 93.35 113.939 93.35C113.572 93.35 113.272 93.4333 113.039 93.6C112.822 93.7667 112.664 94.0083 112.564 94.325C112.464 94.625 112.414 94.9833 112.414 95.4V96.125L109.764 96.025C109.797 94.425 110.164 93.25 110.864 92.5C111.564 91.7333 112.647 91.35 114.114 91.35C115.547 91.35 116.564 91.7417 117.164 92.525C117.764 93.3083 118.064 94.4417 118.064 95.925V102.525C118.064 102.975 118.072 103.408 118.089 103.825C118.122 104.242 118.156 104.633 118.189 105C118.239 105.35 118.281 105.683 118.314 106H115.864C115.814 105.733 115.747 105.4 115.664 105C115.597 104.583 115.547 104.208 115.514 103.875C115.347 104.442 115.022 104.975 114.539 105.475C114.072 105.958 113.422 106.2 112.589 106.2ZM113.639 103.9C113.906 103.9 114.156 103.825 114.389 103.675C114.622 103.525 114.831 103.358 115.014 103.175C115.197 102.975 115.322 102.817 115.389 102.7V98.6C114.972 98.8333 114.581 99.0667 114.214 99.3C113.847 99.5333 113.522 99.7833 113.239 100.05C112.972 100.3 112.756 100.592 112.589 100.925C112.439 101.242 112.364 101.608 112.364 102.025C112.364 102.608 112.472 103.067 112.689 103.4C112.906 103.733 113.222 103.9 113.639 103.9ZM124.538 106.2C123.788 106.2 123.18 106.058 122.713 105.775C122.263 105.492 121.93 105.092 121.713 104.575C121.513 104.058 121.413 103.45 121.413 102.75V93.325H119.888V91.55H121.413V87.325H124.088V91.55H126.413V93.325H124.088V102.575C124.088 103.142 124.18 103.55 124.363 103.8C124.547 104.033 124.897 104.15 125.413 104.15C125.547 104.15 125.697 104.142 125.863 104.125C126.047 104.108 126.222 104.092 126.388 104.075V106.05C126.055 106.1 125.747 106.133 125.463 106.15C125.18 106.183 124.872 106.2 124.538 106.2ZM132.629 106.2C131.495 106.2 130.62 105.983 130.004 105.55C129.387 105.1 128.954 104.45 128.704 103.6C128.47 102.733 128.354 101.675 128.354 100.425V97.125C128.354 95.8417 128.479 94.775 128.729 93.925C128.979 93.075 129.412 92.4333 130.029 92C130.662 91.5667 131.529 91.35 132.629 91.35C133.845 91.35 134.737 91.6 135.304 92.1C135.887 92.6 136.27 93.325 136.454 94.275C136.637 95.2083 136.729 96.3333 136.729 97.65V98.825H131.029V101.725C131.029 102.308 131.079 102.783 131.179 103.15C131.295 103.517 131.47 103.792 131.704 103.975C131.954 104.142 132.27 104.225 132.654 104.225C133.054 104.225 133.354 104.133 133.554 103.95C133.77 103.75 133.912 103.475 133.979 103.125C134.062 102.758 134.104 102.333 134.104 101.85V100.975H136.704V101.525C136.704 102.975 136.395 104.117 135.779 104.95C135.162 105.783 134.112 106.2 132.629 106.2ZM131.029 97.375H134.104V96.075C134.104 95.475 134.07 94.975 134.004 94.575C133.937 94.1583 133.795 93.85 133.579 93.65C133.379 93.4333 133.054 93.325 132.604 93.325C132.17 93.325 131.837 93.425 131.604 93.625C131.387 93.825 131.237 94.1667 131.154 94.65C131.07 95.1167 131.029 95.7667 131.029 96.6V97.375ZM150.364 106.225C149.197 106.225 148.222 105.975 147.439 105.475C146.672 104.975 146.089 104.283 145.689 103.4C145.289 102.517 145.056 101.492 144.989 100.325L147.489 99.65C147.539 100.367 147.647 101.058 147.814 101.725C147.997 102.392 148.289 102.942 148.689 103.375C149.089 103.792 149.647 104 150.364 104C151.097 104 151.647 103.8 152.014 103.4C152.397 102.983 152.589 102.392 152.589 101.625C152.589 100.708 152.381 99.975 151.964 99.425C151.547 98.8583 151.022 98.2917 150.389 97.725L146.989 94.725C146.322 94.1417 145.831 93.5083 145.514 92.825C145.197 92.125 145.039 91.2667 145.039 90.25C145.039 88.7667 145.464 87.6167 146.314 86.8C147.164 85.9833 148.322 85.575 149.789 85.575C150.589 85.575 151.289 85.6833 151.889 85.9C152.506 86.1 153.014 86.4167 153.414 86.85C153.831 87.2833 154.156 87.8333 154.389 88.5C154.639 89.15 154.806 89.9167 154.889 90.8L152.489 91.45C152.439 90.7833 152.339 90.175 152.189 89.625C152.039 89.0583 151.772 88.6083 151.389 88.275C151.022 87.925 150.489 87.75 149.789 87.75C149.089 87.75 148.539 87.9417 148.139 88.325C147.756 88.6917 147.564 89.2417 147.564 89.975C147.564 90.5917 147.664 91.1 147.864 91.5C148.081 91.9 148.422 92.3083 148.889 92.725L152.314 95.725C153.081 96.3917 153.756 97.1917 154.339 98.125C154.922 99.0417 155.214 100.133 155.214 101.4C155.214 102.4 155.006 103.267 154.589 104C154.172 104.717 153.597 105.267 152.864 105.65C152.147 106.033 151.314 106.225 150.364 106.225ZM161.281 106.2C160.531 106.2 159.922 106.058 159.456 105.775C159.006 105.492 158.672 105.092 158.456 104.575C158.256 104.058 158.156 103.45 158.156 102.75V93.325H156.631V91.55H158.156V87.325H160.831V91.55H163.156V93.325H160.831V102.575C160.831 103.142 160.922 103.55 161.106 103.8C161.289 104.033 161.639 104.15 162.156 104.15C162.289 104.15 162.439 104.142 162.606 104.125C162.789 104.108 162.964 104.092 163.131 104.075V106.05C162.797 106.1 162.489 106.133 162.206 106.15C161.922 106.183 161.614 106.2 161.281 106.2Z" fill="white"/>
</svg>
