<svg width="146" height="103" viewBox="0 0 146 103" fill="none" xmlns="http://www.w3.org/2000/svg">
<path d="M82.803 43.4863L75.3728 18.4094C74.7536 16.0875 72.4317 14.3848 69.955 14.3848H53.8562L53.2371 10.6697C52.9275 9.12172 51.5343 8.03815 49.9864 8.03815H39.4603C37.9123 8.03815 36.5191 9.12172 36.2096 10.6697L35.5904 14.5396H19.4916C17.0149 14.5396 14.8478 16.2423 14.0738 18.5642L6.6436 43.4863C6.17922 43.7959 5.71483 44.4151 5.25044 45.0343C1.99974 49.059 0.451782 54.1672 0.451782 59.2755V76.9222C0.451782 78.4701 1.69015 79.7085 3.2381 79.7085H10.8231V89.7702C10.8231 91.9373 12.6806 93.7949 14.8478 93.7949H17.9437C20.1108 93.7949 21.9684 91.9373 21.9684 89.7702V79.7085H67.3235V89.7702C67.3235 91.9373 69.181 93.7949 71.3481 93.7949H74.444C76.6112 93.7949 78.4687 91.9373 78.4687 89.7702V79.7085H84.9701C87.1373 79.7085 88.9948 77.8509 88.9948 75.6838V59.2755C88.9948 54.1672 87.2921 49.059 84.1962 45.0343C83.7318 44.4151 83.2674 43.9507 82.803 43.4863ZM19.6464 20.267H69.955L76.6112 43.0219H12.8354L19.6464 20.267ZM16.5505 67.6344C12.9902 67.6344 10.2039 64.8481 10.2039 61.2878C10.2039 57.7275 12.9902 54.9412 16.5505 54.9412C20.1108 54.9412 22.8971 57.7275 22.8971 61.2878C22.7423 64.8481 19.956 67.6344 16.5505 67.6344ZM73.0509 67.6344C69.4906 67.6344 66.7043 64.8481 66.7043 61.2878C66.7043 57.7275 69.4906 54.9412 73.0509 54.9412C76.4564 54.9412 79.3975 57.7275 79.3975 61.2878C79.2427 64.8481 76.4564 67.6344 73.0509 67.6344Z" fill="#D8F1F6"/>
<path d="M121.789 27.1588C127.089 27.1588 131.386 22.862 131.386 17.5616C131.386 12.2612 127.089 7.96436 121.789 7.96436C116.489 7.96436 112.192 12.2612 112.192 17.5616C112.192 22.862 116.489 27.1588 121.789 27.1588Z" fill="#D8F1F6"/>
<path d="M143.132 67.9967H141.703V64.8658C143.184 64.0362 144.073 62.3576 143.791 60.5842C143.452 58.4463 140.45 39.6095 139.749 36.4523C138.007 28.6079 131.049 28.6079 127.31 28.6079H116.266C112.016 28.6079 110.694 26.9602 109.998 25.309C108.987 22.2295 103.088 3.86008 103.028 3.67154C102.323 1.47763 99.9743 0.270977 97.7793 0.974858C95.5854 1.67988 94.3776 4.0292 95.0826 6.22311C95.334 7.00584 101.248 25.4244 102.123 28.0674L102.148 28.136C102.149 28.1405 102.149 28.1451 102.151 28.1497C102.157 28.168 102.165 28.184 102.172 28.2011L102.216 28.3211C102.231 28.3565 102.248 28.3931 102.263 28.4296C103.448 31.588 105.44 33.9133 107.209 35.9655C109.665 38.8153 111.606 41.0652 111.606 45.3262C111.606 45.4782 111.65 98.2955 111.65 98.2955C111.65 100.6 113.518 102.467 115.822 102.467C118.126 102.467 119.994 100.599 119.994 98.2955V69.081H123.583V98.2955C123.583 100.6 125.451 102.467 127.755 102.467C130.058 102.467 131.927 100.599 131.927 98.2955V39.9443C132.8 44.7629 134.762 56.938 135.55 61.8937C135.808 63.5254 136.985 64.7698 138.466 65.2188V67.9978H137.038C135.886 67.9978 134.943 68.9405 134.943 70.0923V91.2316C134.943 92.3834 135.886 93.3261 137.038 93.3261H143.132C144.283 93.3261 145.226 92.3834 145.226 91.2316V70.0923C145.226 68.9394 144.283 67.9967 143.132 67.9967Z" fill="#D8F1F6"/>
</svg>
